<?xml version="1.0" encoding="UTF-8" standalone="no"?>
<!-- Created with Inkscape (http://www.inkscape.org/) -->

<svg
   xmlns:dc="http://purl.org/dc/elements/1.1/"
   xmlns:cc="http://creativecommons.org/ns#"
   xmlns:rdf="http://www.w3.org/1999/02/22-rdf-syntax-ns#"
   xmlns:svg="http://www.w3.org/2000/svg"
   xmlns="http://www.w3.org/2000/svg"
   xmlns:sodipodi="http://sodipodi.sourceforge.net/DTD/sodipodi-0.dtd"
   xmlns:inkscape="http://www.inkscape.org/namespaces/inkscape"
   width="256px"
   height="256px"
   viewBox="0 0 256 256"
   version="1.1"
   id="SVGRoot"
   sodipodi:docname="cwpw.svg"
   inkscape:version="0.92.3 (2405546, 2018-03-11)">
  <sodipodi:namedview
     id="base"
     pagecolor="#ffffff"
     bordercolor="#666666"
     borderopacity="1.0"
     inkscape:pageopacity="0.0"
     inkscape:pageshadow="2"
     inkscape:zoom="2.8284271"
     inkscape:cx="179.45527"
     inkscape:cy="135.66592"
     inkscape:document-units="px"
     inkscape:current-layer="layer1"
     showgrid="false"
     inkscape:window-width="1920"
     inkscape:window-height="1016"
     inkscape:window-x="1920"
     inkscape:window-y="0"
     inkscape:window-maximized="1"
     inkscape:grid-bbox="true" />
  <defs
     id="defs3246" />
  <metadata
     id="metadata3249">
    <rdf:RDF>
      <cc:Work
         rdf:about="">
        <dc:format>image/svg+xml</dc:format>
        <dc:type
           rdf:resource="http://purl.org/dc/dcmitype/StillImage" />
        <dc:title></dc:title>
      </cc:Work>
    </rdf:RDF>
  </metadata>
  <g
     id="layer1"
     inkscape:groupmode="layer"
     inkscape:label="Layer 1">
    <g
       id="g3977"
       transform="translate(-1.767767,-0.70710678)">
      <path
         inkscape:connector-curvature="0"
         id="path3919"
         d="M 20.992638,59.876455 V 34.067058 H 52.98922 84.985802 V 59.876455 85.685853 H 52.98922 20.992638 Z"
         style="opacity:0.98999999;fill:#000000;fill-opacity:1;fill-rule:nonzero;stroke:none;stroke-width:2.99999976;stroke-linecap:round;stroke-linejoin:round;stroke-miterlimit:4;stroke-dasharray:none;stroke-dashoffset:0;stroke-opacity:1;paint-order:fill markers stroke" />
      <path
         inkscape:connector-curvature="0"
         id="path3921"
         d="M 94.17819,60.053232 V 34.420611 H 125.998 157.8178 V 60.053232 85.685853 H 125.998 94.17819 Z"
         style="opacity:0.98999999;fill:#000000;fill-opacity:1;fill-rule:nonzero;stroke:none;stroke-width:2.99999976;stroke-linecap:round;stroke-linejoin:round;stroke-miterlimit:4;stroke-dasharray:none;stroke-dashoffset:0;stroke-opacity:1;paint-order:fill markers stroke" />
      <path
         inkscape:connector-curvature="0"
         id="path3923"
         d="M 93.471084,121.57152 V 95.938901 h 31.996586 31.99658 v 25.632619 25.63262 H 125.46767 93.471084 Z"
         style="opacity:0.98999999;fill:#000000;fill-opacity:1;fill-rule:nonzero;stroke:none;stroke-width:2.99999976;stroke-linecap:round;stroke-linejoin:round;stroke-miterlimit:4;stroke-dasharray:none;stroke-dashoffset:0;stroke-opacity:1;paint-order:fill markers stroke" />
      <path
         inkscape:connector-curvature="0"
         id="path3925"
         d="M 20.606358,121.30204 V 95.492638 h 31.819805 31.819805 v 25.809402 25.80939 H 52.426163 20.606358 Z"
         style="opacity:0.98999999;fill:#000000;fill-opacity:1;fill-rule:nonzero;stroke:none;stroke-width:2.99999976;stroke-linecap:round;stroke-linejoin:round;stroke-miterlimit:4;stroke-dasharray:none;stroke-dashoffset:0;stroke-opacity:1;paint-order:fill markers stroke" />
      <path
         inkscape:connector-curvature="0"
         id="path3927"
         d="m 174.61159,51.600528 c -1.55237,-0.687998 -2.94517,-2.122201 -3.72118,-3.831804 -0.62902,-1.385795 -0.68271,-2.393781 -0.68271,-12.817783 0,-12.482329 0.0778,-12.987133 2.32637,-15.095652 2.29274,-2.149924 0.54547,-2.052417 36.626,-2.043923 31.34729,0.0074 33.05024,0.04018 34.39443,0.662525 0.77782,0.360117 1.84329,1.112344 2.36773,1.671613 1.97809,2.109487 2.05237,2.650373 2.04392,14.88247 -0.009,12.387978 -0.0782,12.839402 -2.32812,15.086872 -2.07636,2.074122 -0.41197,1.984633 -36.63202,1.969596 -26.94015,-0.01119 -33.5372,-0.104002 -34.39442,-0.483914 z m 67.01846,-2.330409 c 0.69165,-0.192139 1.72579,-0.837881 2.2981,-1.434982 l 1.04056,-1.085638 0.10244,-11.281354 c 0.11359,-12.509205 0.0713,-12.787402 -2.15254,-14.143323 -1.10098,-0.671311 -2.02264,-0.690186 -33.76474,-0.691472 -36.02299,-0.0015 -34.00534,-0.128161 -35.44048,2.225552 -0.64607,1.059584 -0.69023,1.847174 -0.69147,12.330078 l -0.001,11.198193 0.95474,1.134649 c 1.82503,2.168922 0.22381,2.072825 34.75415,2.085774 19.79526,0.0074 32.11387,-0.118934 32.90056,-0.337477 z"
         style="opacity:0.98999999;fill:#000000;fill-opacity:1;fill-rule:nonzero;stroke:none;stroke-width:2.99999976;stroke-linecap:round;stroke-linejoin:round;stroke-miterlimit:4;stroke-dasharray:none;stroke-dashoffset:0;stroke-opacity:1;paint-order:fill markers stroke" />
      <path
         inkscape:connector-curvature="0"
         id="path3929"
         d="M 16.993153,186.62475 C 11.29083,185.05722 6.7464746,180.68066 5.0627402,175.13486 4.3761666,172.87346 4.3665221,171.62305 4.458716,96.822784 L 4.5524058,20.808805 5.8706236,18.04809 C 8.4318449,12.684178 13.435719,9.0211508 19.228645,8.2695066 22.796476,7.8065732 237.29196,7.8014107 240.85659,8.2641724 c 7.03681,0.9135204 13.07479,6.4734686 14.50599,13.3575306 0.27647,1.329832 0.38951,23.445256 0.38951,76.204862 0,80.875775 0.11589,76.070645 -1.93219,80.112355 -1.26628,2.49887 -4.41782,5.74038 -6.8322,7.02723 -4.44638,2.3699 5.17865,2.19277 -117.26329,2.15791 -90.916864,-0.0259 -111.338074,-0.11634 -112.731257,-0.49931 z M 244.48222,183.1736 c 3.89039,-1.91131 6.77451,-5.2442 7.8856,-9.11262 0.50747,-1.76682 0.55338,-9.30161 0.47069,-77.2589 l -0.0916,-75.301145 -1.12954,-2.294353 c -2.07735,-4.219601 -6.0068,-7.237423 -10.55184,-8.103818 -1.5524,-0.295926 -31.1502,-0.374272 -112.41586,-0.297569 L 18.340988,10.90931 16.396444,11.702287 c -3.996259,1.629659 -7.4202251,5.183129 -8.7578131,9.08906 -0.5704888,1.665901 -0.6178847,6.70057 -0.7090974,75.324331 -0.061766,46.469982 0.029034,74.364152 0.2466777,75.780522 0.8578126,5.58241 4.8152958,10.28605 10.0284698,11.91927 1.222849,0.3831 21.544386,0.45495 113.389509,0.40088 l 111.89965,-0.0659 z"
         style="opacity:0.98999999;fill:#000000;fill-opacity:1;fill-rule:nonzero;stroke:none;stroke-width:2.99999976;stroke-linecap:round;stroke-linejoin:round;stroke-miterlimit:4;stroke-dasharray:none;stroke-dashoffset:0;stroke-opacity:1;paint-order:fill markers stroke" />
      <path
         inkscape:connector-curvature="0"
         id="path3931"
         d="m 187.86984,70.483057 v -8.485282 h 29.16815 29.16816 v 8.485282 8.485281 h -29.16816 -29.16815 z"
         style="opacity:0.98999999;fill:#000000;fill-opacity:1;fill-rule:nonzero;stroke:none;stroke-width:2.99999976;stroke-linecap:round;stroke-linejoin:round;stroke-miterlimit:4;stroke-dasharray:none;stroke-dashoffset:0;stroke-opacity:1;paint-order:fill markers stroke" />
      <path
         inkscape:connector-curvature="0"
         id="path3933"
         d="m 187.86984,90.812377 v -8.308505 h 28.99138 28.99138 v 8.308505 8.308505 h -28.99138 -28.99138 z"
         style="opacity:0.98999999;fill:#000000;fill-opacity:1;fill-rule:nonzero;stroke:none;stroke-width:2.99999976;stroke-linecap:round;stroke-linejoin:round;stroke-miterlimit:4;stroke-dasharray:none;stroke-dashoffset:0;stroke-opacity:1;paint-order:fill markers stroke" />
      <path
         inkscape:connector-curvature="0"
         id="path3935"
         d="m 187.86984,111.1417 v -8.48528 h 28.99138 28.99138 v 8.48528 8.48528 h -28.99138 -28.99138 z"
         style="opacity:0.98999999;fill:#000000;fill-opacity:1;fill-rule:nonzero;stroke:none;stroke-width:2.99999976;stroke-linecap:round;stroke-linejoin:round;stroke-miterlimit:4;stroke-dasharray:none;stroke-dashoffset:0;stroke-opacity:1;paint-order:fill markers stroke" />
      <path
         inkscape:connector-curvature="0"
         id="path3937"
         d="m 187.51629,131.64779 v -8.48528 h 29.16815 29.16816 v 8.48528 8.48528 h -29.16816 -29.16815 z"
         style="opacity:0.98999999;fill:#000000;fill-opacity:1;fill-rule:nonzero;stroke:none;stroke-width:2.99999976;stroke-linecap:round;stroke-linejoin:round;stroke-miterlimit:4;stroke-dasharray:none;stroke-dashoffset:0;stroke-opacity:1;paint-order:fill markers stroke" />
      <path
         inkscape:connector-curvature="0"
         id="path3939"
         d="m 187.51629,151.44678 v -8.48528 h 28.99137 28.99138 v 8.48528 8.48528 h -28.99138 -28.99137 z"
         style="opacity:0.98999999;fill:#000000;fill-opacity:1;fill-rule:nonzero;stroke:none;stroke-width:2.99999976;stroke-linecap:round;stroke-linejoin:round;stroke-miterlimit:4;stroke-dasharray:none;stroke-dashoffset:0;stroke-opacity:1;paint-order:fill markers stroke" />
      <path
         inkscape:connector-curvature="0"
         id="path3941"
         d="m 14.628677,172.12966 v -5.83363 H 130.06386 245.49904 v 5.83363 5.83363 H 130.06386 14.628677 Z"
         style="opacity:0.98999999;fill:#000000;fill-opacity:1;fill-rule:nonzero;stroke:none;stroke-width:2.99999976;stroke-linecap:round;stroke-linejoin:round;stroke-miterlimit:4;stroke-dasharray:none;stroke-dashoffset:0;stroke-opacity:1;paint-order:fill markers stroke" />
      <path
         inkscape:connector-curvature="0"
         id="path3943"
         d="m 46.254806,248.76235 c 0.129541,-0.34029 4.951163,-11.80958 10.714716,-25.48731 l 10.479188,-24.86859 9.917594,0.21599 c 5.454677,0.1188 33.305156,0.46505 61.889946,0.76945 28.58479,0.3044 52.09409,0.66925 52.24287,0.81079 0.22776,0.21665 22.64272,42.42184 25.22648,47.49901 l 0.85463,1.67938 h -85.78047 c -81.549722,0 -85.768867,-0.0305 -85.544954,-0.61872 z"
         style="opacity:0.98999999;fill:#000000;fill-opacity:1;fill-rule:nonzero;stroke:none;stroke-width:2.99999976;stroke-linecap:round;stroke-linejoin:round;stroke-miterlimit:4;stroke-dasharray:none;stroke-dashoffset:0;stroke-opacity:1;paint-order:fill markers stroke" />
    </g>
  </g>
</svg>
