<?xml version="1.0" encoding="UTF-8" standalone="no"?>
<!-- Created with Inkscape (http://www.inkscape.org/) -->

<svg
   xmlns:dc="http://purl.org/dc/elements/1.1/"
   xmlns:cc="http://creativecommons.org/ns#"
   xmlns:rdf="http://www.w3.org/1999/02/22-rdf-syntax-ns#"
   xmlns:svg="http://www.w3.org/2000/svg"
   xmlns="http://www.w3.org/2000/svg"
   xmlns:sodipodi="http://sodipodi.sourceforge.net/DTD/sodipodi-0.dtd"
   xmlns:inkscape="http://www.inkscape.org/namespaces/inkscape"
   width="600px"
   height="200px"
   viewBox="0 0 600 200"
   version="1.1"
   id="SVGRoot"
   sodipodi:docname="master_relay.svg"
   inkscape:version="0.92.5 (2060ec1f9f, 2020-04-08)">
  <defs
     id="defs2862" />
  <sodipodi:namedview
     id="base"
     pagecolor="#ffffff"
     bordercolor="#666666"
     borderopacity="1.0"
     inkscape:pageopacity="0.0"
     inkscape:pageshadow="2"
     inkscape:zoom="1.4142136"
     inkscape:cx="14.8981"
     inkscape:cy="108.60198"
     inkscape:document-units="px"
     inkscape:current-layer="layer1"
     showgrid="false"
     inkscape:window-width="3440"
     inkscape:window-height="1376"
     inkscape:window-x="0"
     inkscape:window-y="27"
     inkscape:window-maximized="1" />
  <metadata
     id="metadata2865">
    <rdf:RDF>
      <cc:Work
         rdf:about="">
        <dc:format>image/svg+xml</dc:format>
        <dc:type
           rdf:resource="http://purl.org/dc/dcmitype/StillImage" />
      </cc:Work>
    </rdf:RDF>
  </metadata>
  <g
     inkscape:label="Layer 1"
     inkscape:groupmode="layer"
     id="layer1">
    <path
       style="fill:#008080;fill-opacity:1;stroke:none;stroke-width:0.26488316;stroke-linecap:round;stroke-linejoin:round;stroke-miterlimit:10;stroke-dasharray:none;stroke-dashoffset:0;stroke-opacity:1;paint-order:markers fill stroke"
       d="m 249.72417,124.12038 c -1.85368,-0.0978 -4.01443,-0.52564 -5.66712,-1.12224 l -0.70295,-0.25377 -0.0231,-3.45405 -0.0231,-3.45405 1.4382,0.0242 1.43821,0.0242 0.27977,2.09796 c 0.33378,2.50299 0.3196,2.44044 0.62719,2.76614 0.31209,0.33045 2.00435,0.93952 3.02235,1.08776 1.11067,0.16175 3.66602,0.0624 4.56514,-0.17748 1.00798,-0.26892 2.09594,-0.82719 2.70307,-1.38701 0.93507,-0.86221 1.27871,-1.72564 1.21641,-3.05634 -0.0413,-0.88325 -0.13325,-1.12667 -0.70927,-1.87901 -0.799,-1.04355 -2.21186,-1.86424 -5.7317,-3.32933 -4.31022,-1.79408 -5.76453,-2.59512 -6.88929,-3.79464 -1.05376,-1.12379 -1.43279,-2.13562 -1.43369,-3.82719 -8.4e-4,-1.56968 0.32229,-2.59953 1.2046,-3.83925 0.70583,-0.991741 1.67889,-1.782938 3.01985,-2.455429 2.10053,-1.05342 4.695,-1.49066 7.62188,-1.284501 1.60008,0.112706 2.19535,0.216245 4.63831,0.806761 l 1.83582,0.44376 v 3.076209 3.07622 h -1.28118 c -1.25557,0 -1.28213,-0.004 -1.3287,-0.19826 -0.0261,-0.10904 -0.18682,-0.95166 -0.3571,-1.87246 -0.17027,-0.92081 -0.33052,-1.74056 -0.35611,-1.82166 -0.11316,-0.358645 -1.75095,-1.14806 -2.70011,-1.301441 -0.86925,-0.140471 -2.81335,-0.115081 -3.60137,0.04704 -1.26944,0.261149 -2.09354,0.695886 -2.93715,1.549451 -1.1131,1.12623 -1.45427,2.99558 -0.79447,4.35304 0.63279,1.30189 2.51343,2.45335 5.96867,3.65445 4.69425,1.63179 7.01246,3.08577 7.91412,4.96373 0.43306,0.90194 0.56949,1.54125 0.56639,2.65394 -0.003,1.12143 -0.17236,1.78265 -0.75224,2.93887 -1.13663,2.26632 -3.53443,3.89809 -6.73946,4.58637 -1.52958,0.32848 -3.911,0.46981 -6.03178,0.35798 z"
       id="path4236"
       inkscape:connector-curvature="0" />
    <path
       style="fill:#008080;fill-opacity:1;stroke:none;stroke-width:0.26488316;stroke-linecap:round;stroke-linejoin:round;stroke-miterlimit:10;stroke-dasharray:none;stroke-dashoffset:0;stroke-opacity:1;paint-order:markers fill stroke"
       d="m 272.85991,123.97201 c -1.48351,-0.16868 -2.62975,-0.76988 -3.1361,-1.64491 -0.56006,-0.96784 -0.53127,-0.54939 -0.57978,-8.42501 l -0.0442,-7.18145 -1.43768,-0.0242 -1.43769,-0.0242 10e-4,-0.63667 10e-4,-0.63665 1.54189,-0.61681 1.54189,-0.61681 1.01759,-2.09275 1.01759,-2.092765 h 0.97807 0.97807 v 2.379135 2.37913 h 3.18504 3.18503 v 0.96927 0.96928 h -3.19001 -3.19001 l 0.0313,6.10203 c 0.0278,5.41597 0.0482,6.15916 0.18118,6.61018 0.5158,1.74901 1.45436,2.39626 3.46907,2.39233 1.06053,-0.002 1.69741,-0.11159 2.5231,-0.43386 l 0.53574,-0.2091 -0.0254,0.80679 -0.0253,0.80681 -0.66356,0.24877 c -2.0665,0.77476 -4.70206,1.1712 -6.45853,0.97148 z"
       id="path4238"
       inkscape:connector-curvature="0" />
    <path
       style="fill:#008080;fill-opacity:1;stroke:none;stroke-width:0.26488316;stroke-linecap:round;stroke-linejoin:round;stroke-miterlimit:10;stroke-dasharray:none;stroke-dashoffset:0;stroke-opacity:1;paint-order:markers fill stroke"
       d="m 286.44054,123.91098 c -2.31874,-0.45295 -3.91696,-1.82399 -4.42175,-3.7932 -0.27277,-1.06413 -0.13848,-2.55602 0.30801,-3.42159 0.96721,-1.87512 4.3353,-3.30103 11.05888,-4.68186 l 1.8137,-0.37249 0.0254,-0.96263 c 0.0592,-2.24249 -0.4324,-3.37784 -1.74601,-4.03237 -0.35439,-0.17657 -0.88267,-0.35026 -1.25615,-0.41301 -0.9082,-0.15257 -2.5788,-0.0686 -3.54628,0.17828 l -0.77227,0.19705 -0.024,1.68589 -0.024,1.68588 h -2.03488 c -1.85794,0 -2.06566,-0.0153 -2.38878,-0.17624 -0.46937,-0.23374 -0.61163,-0.63493 -0.49057,-1.38356 0.11463,-0.70894 0.38331,-1.23356 0.88581,-1.72962 1.4813,-1.46232 4.75174,-2.39491 8.39383,-2.39354 3.9154,9.9e-4 5.96263,1.03607 6.7787,3.42574 0.3726,1.09105 0.40164,1.65495 0.40164,7.79953 v 5.83799 l 0.20702,0.19369 c 0.26599,0.24889 0.68307,0.36572 1.30558,0.36572 0.27298,0 0.74104,0.0254 1.04015,0.0566 l 0.54381,0.0566 v 0.73643 0.73643 h -3.34173 -3.34172 l -0.2608,-1.01729 c -0.14344,-0.55952 -0.28802,-1.06117 -0.32128,-1.11477 -0.0396,-0.0638 -0.25676,0.026 -0.62879,0.25998 -0.73797,0.46419 -2.31544,1.25547 -3.1957,1.60302 -1.71529,0.67723 -3.62369,0.93588 -4.96786,0.67332 z m 5.02147,-2.47163 c 0.87811,-0.22724 2.4083,-0.84099 3.27183,-1.31234 l 0.50768,-0.2771 0.001,-3.36106 10e-4,-3.36107 -0.33177,0.078 c -4.39262,1.03229 -6.44197,1.83156 -7.6165,2.97052 -0.72896,0.70687 -0.93318,1.19187 -0.93467,2.21973 -0.001,0.83349 0.12416,1.25792 0.5663,1.91735 0.63867,0.95255 1.45103,1.33537 2.84373,1.34006 0.62772,0.002 1.0743,-0.0544 1.6913,-0.21406 z"
       id="path4240"
       inkscape:connector-curvature="0" />
    <path
       style="fill:#008080;fill-opacity:1;stroke:none;stroke-width:0.26488316;stroke-linecap:round;stroke-linejoin:round;stroke-miterlimit:10;stroke-dasharray:none;stroke-dashoffset:0;stroke-opacity:1;paint-order:markers fill stroke"
       d="m 304.35636,122.77122 v -0.7355 l 1.26403,-0.0872 c 1.35509,-0.0936 1.62574,-0.18373 1.8189,-0.60593 0.0744,-0.1625 0.1021,-2.06745 0.1021,-7.00399 v -6.78078 h -1.63676 -1.63675 v -0.65404 -0.65404 l 0.28754,-0.0903 c 0.15814,-0.0496 1.42334,-0.38976 2.81156,-0.75581 2.35615,-0.62129 2.58415,-0.66555 3.42833,-0.66555 h 0.90432 v 1.72795 1.72795 l 0.88499,-0.82476 c 1.8541,-1.72792 3.01035,-2.57198 3.95612,-2.88793 0.88508,-0.29568 2.42767,-0.1945 3.49016,0.2289 l 0.3391,0.13514 v 1.92898 1.92899 h -0.89517 c -0.87788,0 -0.9013,-0.005 -1.21247,-0.27747 -0.83809,-0.73288 -2.09227,-0.93194 -3.30924,-0.52525 -0.69094,0.23091 -1.76036,0.89961 -2.63151,1.64546 l -0.61092,0.52306 -0.006,5.51612 c -0.004,3.52925 0.0269,5.60879 0.0845,5.77341 0.15483,0.44238 0.34561,0.49447 2.10533,0.57485 0.89319,0.0408 1.66042,0.0966 1.70494,0.12401 0.0445,0.0274 0.081,0.36471 0.081,0.74956 v 0.69973 h -5.66229 -5.66228 v -0.73551 z"
       id="path4242"
       inkscape:connector-curvature="0" />
    <path
       style="fill:#008080;fill-opacity:1;stroke:none;stroke-width:0.26488316;stroke-linecap:round;stroke-linejoin:round;stroke-miterlimit:10;stroke-dasharray:none;stroke-dashoffset:0;stroke-opacity:1;paint-order:markers fill stroke"
       d="m 328.52659,123.94092 c -1.74238,-0.2253 -2.75713,-0.92558 -3.27968,-2.2633 l -0.23206,-0.59408 -0.0442,-7.18145 -0.0442,-7.18145 -1.44152,-0.0242 -1.44152,-0.0242 0.0259,-0.63647 0.0259,-0.63646 1.52134,-0.61699 1.52133,-0.61698 1.0216,-2.09276 1.02159,-2.092755 h 0.97388 0.97387 v 2.379135 2.37913 h 3.18504 3.18504 v 0.96816 0.96816 l -3.16292,0.0231 -3.16292,0.0231 v 5.94782 c 0,5.39784 0.0146,6.00894 0.15756,6.6087 0.425,1.78255 1.45644,2.51804 3.51407,2.50576 1.02385,-0.006 1.66863,-0.11942 2.47887,-0.43566 l 0.53572,-0.2091 -0.0253,0.80565 -0.0254,0.80565 -0.66355,0.25337 c -2.10873,0.80519 -4.75046,1.17963 -6.61843,0.93809 z"
       id="path4244"
       inkscape:connector-curvature="0" />
    <path
       style="fill:#008080;fill-opacity:1;stroke:none;stroke-width:0.26488316;stroke-linecap:round;stroke-linejoin:round;stroke-miterlimit:10;stroke-dasharray:none;stroke-dashoffset:0;stroke-opacity:1;paint-order:markers fill stroke"
       d="m 338.86089,114.60702 v -1.40986 h 5.52957 5.52959 v 1.40986 1.40985 h -5.52959 -5.52957 z"
       id="path4246"
       inkscape:connector-curvature="0" />
    <path
       style="fill:#008080;fill-opacity:1;stroke:none;stroke-width:0.26488316;stroke-linecap:round;stroke-linejoin:round;stroke-miterlimit:10;stroke-dasharray:none;stroke-dashoffset:0;stroke-opacity:1;paint-order:markers fill stroke"
       d="m 352.92813,122.67966 v -0.82705 l 1.03956,-0.18969 c 0.57176,-0.10432 1.159,-0.2112 1.30498,-0.23751 0.26131,-0.0471 0.34646,-0.23824 5.50333,-12.35485 l 5.23792,-12.307021 h 1.70545 1.70546 l 4.83892,11.146661 c 5.8507,13.47735 5.80596,13.37694 6.00704,13.48412 0.0887,0.0472 0.70124,0.17049 1.36125,0.27384 l 1.20002,0.1879 v 0.82533 0.82534 h -5.35262 -5.35263 v -0.83711 c 0,-0.74737 0.0171,-0.8371 0.15926,-0.8371 0.0876,0 0.69474,-0.0421 1.34921,-0.0935 1.22382,-0.0962 1.44357,-0.17421 1.51502,-0.53785 0.0159,-0.0807 -0.66789,-1.75619 -1.51945,-3.7233 l -1.54827,-3.57657 -5.21506,0.0224 -5.21506,0.0224 -1.48502,3.48057 c -0.81675,1.91432 -1.4858,3.55178 -1.48678,3.63879 -9.8e-4,0.087 0.0902,0.24976 0.20249,0.36164 0.16608,0.16542 0.33557,0.21372 0.90685,0.25842 0.38642,0.0302 1.03104,0.0808 1.43249,0.11235 l 0.7299,0.0573 v 0.82573 0.82572 h -4.51212 -4.51214 z m 18.14435,-11.09061 c -0.76416,-1.7523 -4.10912,-9.48754 -4.16009,-9.62023 -0.0479,-0.12458 -0.56212,0.99014 -1.93094,4.18551 -1.02615,2.39541 -2.00653,4.68242 -2.17861,5.08225 l -0.31289,0.72696 h 4.37292 4.37292 z"
       id="path4248"
       inkscape:connector-curvature="0" />
    <path
       style="fill:#008080;fill-opacity:1;stroke:none;stroke-width:0.26488316;stroke-linecap:round;stroke-linejoin:round;stroke-miterlimit:10;stroke-dasharray:none;stroke-dashoffset:0;stroke-opacity:1;paint-order:markers fill stroke"
       d="m 427.11289,44.757718 c -0.5136,-0.06785 -1.2441,-0.309523 -1.76063,-0.582489 -0.92142,-0.486935 -1.44685,-1.365479 -1.63883,-2.740196 -0.0611,-0.437201 -0.0952,-3.051382 -0.0952,-7.284254 v -6.602321 h -1.41929 -1.41929 l 0.0258,-0.672357 0.0258,-0.672356 1.5095,-0.613811 1.50951,-0.61381 1.00313,-2.062239 1.00313,-2.062239 h 1.00418 1.00416 v 2.33396 2.33396 l 3.16291,0.02314 3.16293,0.02314 0.025,0.991304 0.025,0.991304 h -3.18793 -3.18793 l 6.7e-4,5.793624 c 4.1e-4,3.526142 0.0361,6.011092 0.0912,6.349272 0.35398,2.172604 1.47035,3.006093 3.88942,2.903884 0.83101,-0.03511 1.16831,-0.09363 1.84085,-0.319375 0.45288,-0.152013 0.84105,-0.276389 0.86261,-0.276389 0.0215,0 0.0392,0.348534 0.0392,0.774519 v 0.774516 l -0.81396,0.293381 c -1.00544,0.362393 -2.54615,0.754659 -3.4629,0.881651 -0.65041,0.0901 -2.61677,0.111106 -3.19913,0.03417 z"
       id="path4250"
       inkscape:connector-curvature="0" />
    <path
       style="fill:#008080;fill-opacity:1;stroke:none;stroke-width:0.26488316;stroke-linecap:round;stroke-linejoin:round;stroke-miterlimit:10;stroke-dasharray:none;stroke-dashoffset:0;stroke-opacity:1;paint-order:markers fill stroke"
       d="m 403.09242,43.637365 v -0.74124 l 0.33178,-0.04766 c 0.18247,-0.02621 0.7299,-0.07364 1.2165,-0.105406 0.91792,-0.05991 1.3016,-0.18481 1.45719,-0.474356 0.0603,-0.112119 0.0911,-2.498949 0.0911,-7.048365 v -6.878836 h -1.59252 -1.59252 v -0.66087 c 0,-0.363478 0.0215,-0.66087 0.0478,-0.66087 0.0263,0 1.31961,-0.338538 2.87407,-0.752309 2.71288,-0.722118 2.8592,-0.751292 3.64597,-0.726956 l 0.81968,0.02535 0.0442,1.691272 0.0442,1.691274 1.15015,-1.06867 c 1.84977,-1.718725 3.03371,-2.500087 4.13498,-2.728937 0.6323,-0.1314 1.77202,-0.0051 2.67746,0.296731 l 0.61931,0.206445 0.0238,1.96058 0.0238,1.96058 h -0.84195 -0.84194 l -0.5396,-0.395625 c -1.14735,-0.841225 -2.47715,-0.88563 -3.97303,-0.132669 -0.57695,0.290413 -1.45974,0.926234 -2.05175,1.477762 l -0.42549,0.396387 v 5.622449 5.62245 l 0.20709,0.239782 c 0.19147,0.221704 0.27652,0.244954 1.12803,0.308368 0.50651,0.03772 1.28921,0.07081 1.73932,0.07353 l 0.81837,0.005 v 0.793044 0.793043 h -5.61805 -5.61804 z"
       id="path4252"
       inkscape:connector-curvature="0" />
    <path
       style="fill:#008080;fill-opacity:1;stroke:none;stroke-width:0.26488316;stroke-linecap:round;stroke-linejoin:round;stroke-miterlimit:10;stroke-dasharray:none;stroke-dashoffset:0;stroke-opacity:1;paint-order:markers fill stroke"
       d="m 384.91119,44.689861 c -1.93726,-0.420826 -3.49821,-1.693741 -4.07555,-3.323512 -0.36688,-1.035651 -0.34322,-2.485399 0.058,-3.553431 0.34928,-0.929747 1.5392,-1.961612 3.05804,-2.651825 1.68064,-0.763747 5.0247,-1.714 8.50904,-2.417934 l 1.44489,-0.291908 -0.0333,-1.460092 c -0.0286,-1.255417 -0.0611,-1.529846 -0.23133,-1.957691 -0.37957,-0.953792 -1.14901,-1.582237 -2.32478,-1.898785 -0.8645,-0.232744 -2.7803,-0.193941 -3.88353,0.07866 l -0.84048,0.20768 -0.024,1.699611 -0.024,1.699612 -2.0993,-0.02777 c -2.32988,-0.03082 -2.54539,-0.07763 -2.76262,-0.599965 -0.15954,-0.383608 -0.0506,-1.260686 0.22673,-1.826029 0.63925,-1.302939 2.53994,-2.356133 5.20828,-2.885961 3.25913,-0.647136 6.40987,-0.489702 8.25184,0.412323 0.67957,0.332789 1.5937,1.138766 1.91944,1.692357 0.1227,0.208531 0.33417,0.692009 0.46993,1.074395 l 0.24684,0.695249 0.0442,6.401266 c 0.0417,6.034436 0.0534,6.411429 0.20546,6.578616 0.25877,0.284645 0.56494,0.358813 1.78518,0.432451 l 1.15015,0.06941 0.0255,0.771015 0.0255,0.771014 h -3.35152 -3.35152 l -0.29245,-1.123479 c -0.16086,-0.617912 -0.30145,-1.135022 -0.31245,-1.149131 -0.011,-0.01411 -0.39328,0.2012 -0.84949,0.478468 -1.65125,1.003552 -3.6372,1.814236 -5.15107,2.102718 -0.83609,0.159325 -2.29463,0.160619 -3.02168,0.0027 z m 4.45577,-2.254001 c 0.8812,-0.142409 2.1662,-0.582836 3.39621,-1.164032 l 1.12804,-0.533007 v -3.37895 c 0,-1.858422 -0.0237,-3.378948 -0.0527,-3.378948 -0.0289,0 -0.61621,0.135883 -1.30499,0.30196 -4.31263,1.039866 -6.57969,2.18137 -7.25392,3.652472 -0.14945,0.326089 -0.18716,0.583012 -0.1891,1.288467 -0.002,0.772965 0.0265,0.942562 0.23295,1.381231 0.70807,1.504342 2.11677,2.142176 4.04346,1.830807 z"
       id="path4254"
       inkscape:connector-curvature="0" />
    <path
       style="fill:#008080;fill-opacity:1;stroke:none;stroke-width:0.26488316;stroke-linecap:round;stroke-linejoin:round;stroke-miterlimit:10;stroke-dasharray:none;stroke-dashoffset:0;stroke-opacity:1;paint-order:markers fill stroke"
       d="m 370.93242,44.694811 c -1.86609,-0.427967 -2.69702,-1.265326 -3.01447,-3.037761 -0.0941,-0.525366 -0.12082,-2.128454 -0.12324,-7.38975 l -0.003,-6.718842 h -1.41929 -1.41929 l 0.0258,-0.676265 0.0258,-0.676264 1.50404,-0.609542 1.50404,-0.609543 1.00975,-2.062598 1.00974,-2.0626 h 1.00302 1.00302 v 2.33396 2.33396 l 3.16293,0.02314 3.16291,0.02314 v 0.969274 0.969276 l -3.16291,0.02314 -3.16293,0.02314 v 5.850846 c 0,6.279836 0.0238,6.677472 0.45534,7.593027 0.27526,0.584056 0.85821,1.127672 1.47152,1.37223 0.44679,0.178156 0.65663,0.201697 1.78902,0.200706 1.21348,-0.0011 1.32739,-0.01645 2.10628,-0.28457 0.45287,-0.155897 0.84104,-0.283449 0.8626,-0.283449 0.0215,0 0.0392,0.336025 0.0392,0.746724 0,0.873459 0.0668,0.809669 -1.3271,1.267674 -1.72662,0.56734 -2.64556,0.728294 -4.37942,0.767068 -1.15179,0.02576 -1.73943,0.0019 -2.12336,-0.08612 z"
       id="path4256"
       inkscape:connector-curvature="0" />
    <path
       style="fill:#008080;fill-opacity:1;stroke:none;stroke-width:0.26488316;stroke-linecap:round;stroke-linejoin:round;stroke-miterlimit:10;stroke-dasharray:none;stroke-dashoffset:0;stroke-opacity:1;paint-order:markers fill stroke"
       d="m 347.70822,44.903584 c -1.54429,-0.14755 -3.523,-0.578313 -4.88815,-1.064136 l -0.77414,-0.275497 v -3.469775 -3.469775 h 1.41557 c 0.77856,0 1.41653,0.02974 1.41771,0.06609 0.0133,0.411375 0.62032,4.44497 0.68758,4.569321 0.18694,0.345578 0.55172,0.582723 1.35622,0.881685 1.11745,0.415256 1.85947,0.560583 3.17398,0.621629 1.85234,0.08602 3.30641,-0.16809 4.66082,-0.814539 1.69616,-0.80956 2.58976,-2.084704 2.59293,-3.700075 0.001,-0.75817 -0.20656,-1.361643 -0.68777,-1.994969 -0.88398,-1.163419 -2.17814,-1.914189 -6.19723,-3.595147 -2.5413,-1.062884 -4.14102,-1.829118 -5.10206,-2.443794 -0.90214,-0.576994 -1.90838,-1.638672 -2.2988,-2.425424 -0.88306,-1.779552 -0.7081,-4.317517 0.41857,-6.071681 1.21357,-1.88944 3.4482,-3.239468 6.39235,-3.861864 1.1492,-0.242939 3.72592,-0.33246 5.22415,-0.181499 1.27718,0.128689 4.17764,0.740799 5.50323,1.161397 l 0.28753,0.09123 v 3.033167 3.033166 h -1.3129 -1.31292 l -0.34282,-1.916521 c -0.396,-2.213821 -0.37443,-2.175122 -1.51241,-2.712962 -1.08507,-0.512833 -1.57328,-0.605375 -3.21612,-0.609632 -1.72531,-0.0045 -2.47134,0.135484 -3.52682,0.66163 -1.57199,0.783635 -2.48934,2.211639 -2.48934,3.875078 0,2.222824 1.66134,3.553399 6.547,5.243532 4.22859,1.462821 6.68022,2.976 7.58876,4.683875 0.84393,1.586447 0.85407,3.786647 0.0255,5.550076 -1.2537,2.668409 -4.06793,4.437101 -7.97086,5.009531 -1.1146,0.163473 -4.48225,0.238377 -5.65962,0.125882 z"
       id="path4258"
       inkscape:connector-curvature="0" />
    <path
       style="fill:#008080;fill-opacity:1;stroke:none;stroke-width:0.26488316;stroke-linecap:round;stroke-linejoin:round;stroke-miterlimit:10;stroke-dasharray:none;stroke-dashoffset:0;stroke-opacity:1;paint-order:markers fill stroke"
       d="m 299.24528,53.141702 c -2.14377,-0.574822 -2.64125,-2.486691 -1.03964,-3.995318 l 0.47903,-0.451218 0.42495,0.16727 c 0.23372,0.092 1.1744,0.466571 2.09039,0.832382 0.916,0.365813 1.71827,0.644928 1.78282,0.620257 0.2035,-0.07777 1.02578,-1.098614 1.65882,-2.059368 0.62794,-0.953014 2.015,-3.626311 2.015,-3.88353 0,-0.151943 -7.46571,-16.784317 -7.61356,-16.961733 -0.0468,-0.05627 -0.47305,-0.129669 -0.94703,-0.163108 -0.47399,-0.03344 -1.01109,-0.08356 -1.19357,-0.111391 l -0.33178,-0.05059 V 26.30284 25.520325 l 4.97663,0.02276 4.97661,0.02276 0.0254,0.762309 0.0254,0.76231 -0.95441,0.05551 c -1.51779,0.08828 -1.69205,0.122498 -1.85056,0.363431 -0.0802,0.1219 -0.11902,0.299599 -0.0902,0.412901 0.0278,0.109397 1.22039,2.766883 2.65016,5.905525 l 2.59958,5.706623 2.66865,-5.737997 c 1.46776,-3.155898 2.6907,-5.825516 2.71766,-5.932484 0.0303,-0.12055 -0.0157,-0.274063 -0.12118,-0.403809 -0.15418,-0.189636 -0.26494,-0.215468 -1.17771,-0.274657 -0.55414,-0.03593 -1.11701,-0.0681 -1.25083,-0.07148 l -0.2433,-0.0062 v -0.793942 -0.793942 l 4.00342,0.02293 4.00341,0.02293 0.0254,0.760518 0.0254,0.760518 -0.37931,0.05238 c -0.20862,0.02881 -0.7273,0.07861 -1.15265,0.110666 -0.42534,0.03206 -0.80854,0.10243 -0.85153,0.15638 -0.043,0.05395 -2.07788,4.321048 -4.52195,9.48244 -4.79759,10.131541 -5.24807,11.034163 -6.29232,12.608238 -1.7583,2.650422 -3.54165,3.787496 -5.91903,3.774001 -0.41362,-0.0024 -0.96184,-0.06052 -1.21826,-0.129286 z"
       id="path4260"
       inkscape:connector-curvature="0" />
    <path
       style="fill:#008080;fill-opacity:1;stroke:none;stroke-width:0.26488316;stroke-linecap:round;stroke-linejoin:round;stroke-miterlimit:10;stroke-dasharray:none;stroke-dashoffset:0;stroke-opacity:1;paint-order:markers fill stroke"
       d="m 279.09726,44.689861 c -1.50697,-0.327359 -2.99578,-1.309753 -3.64393,-2.404459 -0.76779,-1.296782 -0.9131,-3.036368 -0.3736,-4.472484 0.34927,-0.929747 1.53919,-1.961612 3.05803,-2.651825 1.6809,-0.763866 5.02468,-1.713991 8.51045,-2.418219 l 1.44629,-0.292193 -0.0367,-1.459807 c -0.0436,-1.735987 -0.17846,-2.197011 -0.8474,-2.898312 -0.7979,-0.836478 -1.69062,-1.115683 -3.5125,-1.098549 -0.97538,0.0092 -1.41726,0.05579 -2.07912,0.219329 l -0.8405,0.20768 -0.024,1.699611 -0.024,1.699612 -2.09931,-0.02778 c -1.77475,-0.02348 -2.14183,-0.05097 -2.37438,-0.177824 -0.3841,-0.209514 -0.5141,-0.572798 -0.44422,-1.241369 0.21424,-2.04967 2.45933,-3.453579 6.53873,-4.088822 1.49817,-0.233294 4.31875,-0.211984 5.50513,0.04159 2.23341,0.477369 3.59753,1.654186 4.17678,3.603276 0.13625,0.458486 0.1577,1.19617 0.19976,6.870835 0.0444,5.989491 0.0565,6.367463 0.20834,6.534559 0.25876,0.284648 0.56494,0.358816 1.78519,0.432455 l 1.15015,0.06941 0.0255,0.771015 0.0255,0.771014 h -3.35247 -3.35245 l -0.2932,-1.123479 c -0.16127,-0.617912 -0.30145,-1.135022 -0.31152,-1.149131 -0.0101,-0.01411 -0.39159,0.2012 -0.8478,0.478468 -1.65125,1.003552 -3.63719,1.814236 -5.15106,2.102718 -0.83609,0.159325 -2.29463,0.160619 -3.0217,0.0027 z m 4.45578,-2.254001 c 0.8812,-0.142409 2.16621,-0.582836 3.39622,-1.164032 l 1.12803,-0.533007 v -3.37895 c 0,-1.858422 -0.0237,-3.378948 -0.0527,-3.378948 -0.0289,0 -0.63611,0.139883 -1.34922,0.310854 -4.24324,1.017326 -6.52895,2.172075 -7.21211,3.643578 -0.15328,0.330151 -0.1891,0.574224 -0.1891,1.288467 0,0.770015 0.0297,0.944235 0.23538,1.381231 0.71024,1.508953 2.11086,2.14313 4.04345,1.830807 z"
       id="path4262"
       inkscape:connector-curvature="0" />
    <path
       style="fill:#008080;fill-opacity:1;stroke:none;stroke-width:0.26488316;stroke-linecap:round;stroke-linejoin:round;stroke-miterlimit:10;stroke-dasharray:none;stroke-dashoffset:0;stroke-opacity:1;paint-order:markers fill stroke"
       d="m 261.04206,44.260886 c -0.0252,-0.06549 -0.034,-0.412744 -0.0196,-0.771686 l 0.0263,-0.652624 1.15015,-0.06392 c 1.56558,-0.08701 1.66694,-0.11105 1.98389,-0.470573 l 0.27217,-0.308742 V 30.232928 18.472515 h -1.72895 -1.72894 l 0.0258,-0.674044 0.0258,-0.674044 2.82539,-0.735812 c 2.70139,-0.703517 2.86739,-0.73581 3.78223,-0.73581 h 0.95683 v 13.183701 13.183701 l 0.34349,0.342098 c 0.30912,0.307879 0.39098,0.343133 0.81837,0.352447 0.26119,0.0057 0.87303,0.03543 1.35963,0.06609 l 0.88473,0.05574 v 0.748986 0.748986 l -5.46574,0.0227 c -4.52501,0.01879 -5.47362,0.0022 -5.51161,-0.09636 z"
       id="path4264"
       inkscape:connector-curvature="0" />
    <path
       style="fill:#008080;fill-opacity:1;stroke:none;stroke-width:0.26488316;stroke-linecap:round;stroke-linejoin:round;stroke-miterlimit:10;stroke-dasharray:none;stroke-dashoffset:0;stroke-opacity:1;paint-order:markers fill stroke"
       d="m 247.77776,44.690615 c -3.40612,-0.534815 -5.99045,-2.211031 -7.41915,-4.812107 -1.12409,-2.04652 -1.36508,-5.398906 -0.57811,-8.041841 0.60388,-2.028016 2.1471,-3.980508 4.07498,-5.155695 2.49699,-1.522107 5.99856,-2.002472 9.00949,-1.235976 2.62605,0.668518 4.62763,2.78802 5.21938,5.526891 0.19199,0.888544 0.31386,2.418653 0.22868,2.870886 l -0.0592,0.314382 h -7.29504 -7.29502 v 0.26782 c 0,0.147302 0.0427,0.649199 0.0949,1.115327 0.26724,2.387011 1.21769,4.349853 2.6306,5.432675 1.41741,1.086268 3.09993,1.549275 5.23192,1.439751 1.73425,-0.08909 3.26706,-0.58631 5.64473,-1.831057 0.54709,-0.286411 1.01489,-0.520747 1.03956,-0.520747 0.0246,0 0.0448,0.528898 0.0448,1.175328 v 1.17533 l -1.05387,0.502152 c -1.96576,0.936648 -4.13009,1.619123 -5.75625,1.815101 -0.9917,0.119515 -2.88001,0.100333 -3.76243,-0.03822 z m 5.97194,-13.158426 c 0,-0.977033 -0.14535,-1.638827 -0.52191,-2.376223 -0.69078,-1.35273 -1.7329,-1.989513 -3.43736,-2.100363 -2.84076,-0.184752 -5.13762,1.572117 -5.73152,4.384051 -0.0714,0.337831 -0.12973,0.690951 -0.12973,0.78471 0,0.166503 0.11429,0.170472 4.91026,0.170472 h 4.91026 z"
       id="path4266"
       inkscape:connector-curvature="0" />
    <path
       style="fill:#008080;fill-opacity:1;stroke:none;stroke-width:0.26488316;stroke-linecap:round;stroke-linejoin:round;stroke-miterlimit:10;stroke-dasharray:none;stroke-dashoffset:0;stroke-opacity:1;paint-order:markers fill stroke"
       d="m 233.18707,44.902789 c -2.29031,-0.354107 -3.65608,-1.295564 -4.67156,-3.2202 -0.17963,-0.340455 -0.64947,-1.568259 -1.04409,-2.728454 -0.9079,-2.669258 -1.31101,-3.457642 -2.25432,-4.408906 -0.54883,-0.553454 -0.87098,-0.794403 -1.43443,-1.072875 -1.14553,-0.566154 -1.7899,-0.676565 -3.96243,-0.678954 l -1.85794,-0.0021 -0.0229,4.564309 c -0.0159,3.165622 0.007,4.619277 0.0735,4.743691 0.15686,0.291918 0.59145,0.408113 1.76314,0.47141 0.60826,0.03286 1.17559,0.07905 1.26074,0.102629 0.13347,0.03697 0.15483,0.157542 0.15483,0.874046 v 0.831165 h -5.61805 -5.61804 v -0.831163 c 0,-0.716504 0.0213,-0.837079 0.15483,-0.874047 0.0852,-0.02359 0.65248,-0.06976 1.26073,-0.102628 0.60826,-0.03286 1.23267,-0.112241 1.38758,-0.176403 0.59406,-0.246048 0.55884,0.458921 0.55884,-11.183327 V 20.678194 l -0.24824,-0.276697 c -0.26592,-0.296428 -0.21776,-0.287282 -2.56078,-0.486207 l -0.55296,-0.04695 v -0.83009 -0.830088 l 6.56913,7.54e-4 c 7.7087,8.84e-4 8.95316,0.07699 11.03703,0.674971 2.43017,0.697353 3.82097,1.660513 4.55917,3.157319 0.42178,0.855248 0.57495,1.507877 0.63074,2.687536 0.15013,3.174468 -1.4401,5.093226 -5.27839,6.368898 -0.51093,0.16981 -1.16784,0.358423 -1.4598,0.419139 -0.29197,0.06071 -0.49103,0.123703 -0.44237,0.139973 0.0487,0.01627 0.43836,0.12978 0.86601,0.252248 1.37461,0.39366 2.61485,1.132168 3.40749,2.02902 0.71287,0.806599 1.1252,1.790568 1.79034,4.272464 0.59933,2.236272 1.22547,3.199021 2.4905,3.829333 0.71813,0.357817 1.56907,0.555545 2.77023,0.643703 l 0.88474,0.06493 0.0251,0.847491 0.0252,0.847491 -0.95415,0.244961 c -1.05459,0.27075 -2.7047,0.366634 -3.68943,0.214386 z M 222.03882,30.712022 c 2.63528,-0.26375 4.44129,-1.141311 5.19298,-2.523322 0.53452,-0.982751 0.76017,-2.839896 0.49749,-4.094456 -0.27685,-1.322194 -1.18114,-2.433129 -2.48647,-3.054638 -1.37352,-0.653987 -2.88264,-0.892888 -5.64028,-0.892888 h -1.68448 v 5.331015 5.331015 h 1.57715 c 0.86744,0 2.01206,-0.04352 2.54361,-0.09672 z"
       id="path4268"
       inkscape:connector-curvature="0" />
    <path
       style="fill:#000000;fill-opacity:1;stroke:none;stroke-width:1.05953264;stroke-linecap:round;stroke-linejoin:round;stroke-miterlimit:10;stroke-dasharray:none;stroke-dashoffset:0;stroke-opacity:1;paint-order:markers fill stroke"
       d="M 165.73974,66.086962 C 103.71414,65.990035 52.833218,65.778655 52.671022,65.617233 52.508826,65.455808 52.329145,54.39285 52.271733,41.032881 L 52.167344,16.742028 H 34.736349 c -18.076378,0 -18.280339,-0.01603 -18.280339,-1.43719 0,-1.394768 0.427957,-1.431321 19.213654,-1.641095 l 18.189305,-0.203114 0.762618,0.75954 0.762621,0.75954 V 38.888841 62.79797 l 61.636092,0.234643 c 33.89984,0.129051 153.64577,0.234639 266.10203,0.234639 185.40627,0 204.51778,0.05163 205.02208,0.553871 0.67615,0.673439 0.71126,1.346345 0.0967,1.854306 -0.54425,0.449873 -245.36674,0.68834 -422.50139,0.411533 z"
       id="path4270"
       inkscape:connector-curvature="0" />
    <path
       style="fill:#000000;fill-opacity:1;stroke:none;stroke-width:1.05953264;stroke-linecap:round;stroke-linejoin:round;stroke-miterlimit:10;stroke-dasharray:none;stroke-dashoffset:0;stroke-opacity:1;paint-order:markers fill stroke"
       d="m 129.6132,133.75005 c -0.58023,-0.35372 -0.6193,-1.92214 -0.6193,-24.85942 V 84.408736 l -18.31001,0.09129 -18.309995,0.09129 0.121123,23.834484 c 0.08821,17.35684 0.01161,24.03828 -0.281822,24.58435 l -0.402943,0.74986 H 52.788341 c -29.878522,0 -39.121422,-0.0991 -39.446587,-0.42295 -0.759599,-0.75653 -0.503464,-2.03191 0.483099,-2.40549 0.568985,-0.21545 14.83309,-0.34373 38.220412,-0.34373 h 37.312642 v -24.29921 c 0,-13.364549 0.1377,-24.38395 0.306,-24.487545 0.168305,-0.103597 9.367828,-0.296909 20.443393,-0.429583 15.33247,-0.183668 20.32593,-0.140729 20.92756,0.179955 l 0.79017,0.421182 v 24.483821 24.48384 h 226.448 c 197.5292,0 226.50247,0.0654 226.87447,0.51178 0.58977,0.70778 0.12681,1.92115 -0.80577,2.11172 -0.42496,0.0868 -102.77338,0.24921 -227.44093,0.36083 -160.86034,0.14403 -226.84808,0.0933 -227.2876,-0.17458 z"
       id="path4272"
       inkscape:connector-curvature="0" />
    <path
       style="fill:#000000;fill-opacity:1;stroke:none;stroke-width:1.05953264;stroke-linecap:round;stroke-linejoin:round;stroke-miterlimit:10;stroke-dasharray:none;stroke-dashoffset:0;stroke-opacity:1;paint-order:markers fill stroke"
       d="m 13.536396,159.46164 c -0.710918,-0.41241 -0.820448,-1.74525 -0.194642,-2.36853 0.329598,-0.32827 64.30062,-0.42295 285.743086,-0.42295 262.63744,0 285.36401,0.0455 285.8922,0.57147 0.76224,0.75916 0.55582,1.60076 -0.52638,2.14608 -1.14757,0.57827 -569.917886,0.65192 -570.914264,0.074 z"
       id="path4274"
       inkscape:connector-curvature="0" />
    <path
       style="fill:#000000;fill-opacity:1;stroke:none;stroke-width:1.05953264;stroke-linecap:round;stroke-linejoin:round;stroke-miterlimit:10;stroke-dasharray:none;stroke-dashoffset:0;stroke-opacity:1;paint-order:markers fill stroke"
       d="M 19.110206,199.44664 C 11.10478,197.76914 4.2390794,191.76827 1.1284207,183.72992 L 0,180.81393 V 99.923485 19.033043 L 0.9482228,16.447748 C 3.6290402,9.1385961 9.2801194,3.5702036 16.632957,0.99251285 L 19.464098,-3.0546439e-6 H 299.92407 580.38404 L 583.21179,0.99522525 c 7.3828,2.59838615 12.92865,8.07587615 15.54448,15.35283675 l 1.09187,3.037445 0.0982,79.480589 c 0.1102,89.250174 0.32611,81.921464 -2.58359,87.697324 -3.34387,6.63776 -9.57432,11.39667 -16.89148,12.90196 -2.46048,0.50617 -28.46267,0.55517 -280.79767,0.52909 -243.469432,-0.0251 -278.394488,-0.0933 -280.563364,-0.54783 z m 562.964874,-3.38953 c 5.63521,-1.98602 10.32195,-6.00084 12.767,-10.93666 2.51731,-5.08167 2.34082,1.32782 2.34663,-85.228695 0.005,-76.634067 -0.008,-78.153655 -0.69385,-80.824872 -1.03701,-4.038206 -2.585,-6.67534 -5.83501,-9.9402036 C 587.4344,5.8864495 584.12784,4.0432323 579.96453,3.164644 576.28196,2.387508 23.535052,2.3964647 19.817991,3.1737207 15.715018,4.0316729 12.445321,5.8641534 9.1882854,9.131071 5.937982,12.391234 4.3911962,15.025097 3.3532909,19.066883 2.6674146,21.737805 2.6541953,23.266751 2.6541953,99.923485 c 0,76.656735 0.013218,78.185675 0.6990956,80.856595 1.7417389,6.78265 6.7813481,12.41401 13.2946251,14.8557 1.2851,0.48176 3.161096,1.01339 4.16888,1.1814 1.024519,0.1708 124.542024,0.28445 280.168954,0.25778 l 278.33661,-0.0476 z"
       id="path4276"
       inkscape:connector-curvature="0" />
  </g>
</svg>
